<?xml version="1.0" encoding="UTF-8" standalone="no"?>
<!-- Created with Inkscape (http://www.inkscape.org/) -->

<svg
   xmlns:dc="http://purl.org/dc/elements/1.1/"
   xmlns:cc="http://creativecommons.org/ns#"
   xmlns:rdf="http://www.w3.org/1999/02/22-rdf-syntax-ns#"
   xmlns:svg="http://www.w3.org/2000/svg"
   xmlns="http://www.w3.org/2000/svg"
   xmlns:sodipodi="http://sodipodi.sourceforge.net/DTD/sodipodi-0.dtd"
   xmlns:inkscape="http://www.inkscape.org/namespaces/inkscape"
   width="120mm"
   height="88mm"
   viewBox="0 0 120 88"
   version="1.1"
   id="svg8"
   inkscape:version="0.92.3 (2405546, 2018-03-11)"
   sodipodi:docname="wavepacket_final.svg">
  <defs
     id="defs2"
     style="stroke-linecap:butt;stroke-linejoin:round">
    <style
       id="style113"
       type="text/css">
*{stroke-linecap:butt;stroke-linejoin:round;}
  </style>
    <style
       id="style480"
       type="text/css">
*{stroke-linecap:butt;stroke-linejoin:round;}
  </style>
    <path
       style="stroke:#000000;stroke-width:0.80000001;stroke-linecap:butt;stroke-linejoin:round"
       id="me8d78b939e"
       d="M 0,0 V 3.5"
       inkscape:connector-curvature="0" />
    <path
       id="DejaVuSans-2212"
       d="M 10.59375,35.5 H 73.1875 V 27.203125 H 10.59375 Z"
       inkscape:connector-curvature="0"
       style="stroke-linecap:butt;stroke-linejoin:round" />
    <path
       id="DejaVuSans-36"
       d="m 33.015625,40.375 q -6.640625,0 -10.53125,-4.546875 -3.875,-4.53125 -3.875,-12.4375 0,-7.859375 3.875,-12.4375 3.890625,-4.5625 10.53125,-4.5625 6.640625,0 10.515625,4.5625 3.875,4.578125 3.875,12.4375 0,7.90625 -3.875,12.4375 Q 39.65625,40.375 33.015625,40.375 Z M 52.59375,71.296875 V 62.3125 q -3.71875,1.75 -7.5,2.671875 -3.78125,0.9375 -7.5,0.9375 -9.765625,0 -14.921875,-6.59375 -5.140625,-6.59375 -5.875,-19.921875 2.875,4.25 7.21875,6.515625 4.359375,2.265625 9.578125,2.265625 10.984375,0 17.359375,-6.671875 6.375,-6.65625 6.375,-18.125 0,-11.234375 -6.640625,-18.03125 -6.640625,-6.78125 -17.671875,-6.78125 -12.65625,0 -19.34375,9.6875 -6.6875,9.703125 -6.6875,28.109375 0,17.28125 8.203125,27.5625 8.203125,10.28125 22.015625,10.28125 3.71875,0 7.5,-0.734375 3.78125,-0.734375 7.890625,-2.1875 z"
       inkscape:connector-curvature="0"
       style="stroke-linecap:butt;stroke-linejoin:round" />
    <path
       id="DejaVuSans-34"
       d="M 37.796875,64.3125 12.890625,25.390625 h 24.90625 z m -2.59375,8.59375 h 12.40625 V 25.390625 h 10.40625 V 17.1875 H 47.609375 V 0 h -9.8125 V 17.1875 H 4.890625 v 9.515625 z"
       inkscape:connector-curvature="0"
       style="stroke-linecap:butt;stroke-linejoin:round" />
    <path
       id="DejaVuSans-32"
       d="M 19.1875,8.296875 H 53.609375 V 0 H 7.328125 v 8.296875 q 5.609375,5.8125 15.296875,15.59375 9.703125,9.796875 12.1875,12.640625 4.734375,5.3125 6.609375,9 1.890625,3.6875 1.890625,7.25 0,5.8125 -4.078125,9.46875 -4.078125,3.671875 -10.625,3.671875 -4.640625,0 -9.796875,-1.609375 -5.140625,-1.609375 -11,-4.890625 v 9.96875 Q 13.765625,71.78125 18.9375,73 q 5.1875,1.21875 9.484375,1.21875 11.328125,0 18.0625,-5.671875 6.734375,-5.65625 6.734375,-15.125 0,-4.5 -1.6875,-8.53125 Q 49.859375,40.875 45.40625,35.40625 44.1875,33.984375 37.640625,27.21875 31.109375,20.453125 19.1875,8.296875 Z"
       inkscape:connector-curvature="0"
       style="stroke-linecap:butt;stroke-linejoin:round" />
    <path
       id="DejaVuSans-30"
       d="m 31.78125,66.40625 q -7.609375,0 -11.453125,-7.5 Q 16.5,51.421875 16.5,36.375 q 0,-14.984375 3.828125,-22.484375 3.84375,-7.5 11.453125,-7.5 7.671875,0 11.5,7.5 3.84375,7.5 3.84375,22.484375 0,15.046875 -3.84375,22.53125 -3.828125,7.5 -11.5,7.5 z m 0,7.8125 q 12.265625,0 18.734375,-9.703125 6.46875,-9.6875 6.46875,-28.140625 0,-18.40625 -6.46875,-28.109375 -6.46875,-9.6875 -18.734375,-9.6875 -12.25,0 -18.71875,9.6875 Q 6.59375,17.96875 6.59375,36.375 q 0,18.453125 6.46875,28.140625 6.46875,9.703125 18.71875,9.703125 z"
       inkscape:connector-curvature="0"
       style="stroke-linecap:butt;stroke-linejoin:round" />
    <path
       style="stroke:#000000;stroke-width:0.80000001;stroke-linecap:butt;stroke-linejoin:round"
       id="made8eee412"
       d="M 0,0 H -3.5"
       inkscape:connector-curvature="0" />
    <path
       id="DejaVuSans-31"
       d="m 12.40625,8.296875 h 16.109375 v 55.625 L 10.984375,60.40625 v 8.984375 l 17.4375,3.515625 H 38.28125 V 8.296875 H 54.390625 V 0 H 12.40625 Z"
       inkscape:connector-curvature="0"
       style="stroke-linecap:butt;stroke-linejoin:round" />
    <path
       id="DejaVuSans-2e"
       d="M 10.6875,12.40625 H 21 V 0 H 10.6875 Z"
       inkscape:connector-curvature="0"
       style="stroke-linecap:butt;stroke-linejoin:round" />
    <path
       id="DejaVuSans-37"
       d="m 8.203125,72.90625 h 46.875 V 68.703125 L 28.609375,0 H 18.3125 L 43.21875,64.59375 H 8.203125 Z"
       inkscape:connector-curvature="0"
       style="stroke-linecap:butt;stroke-linejoin:round" />
    <path
       id="DejaVuSans-35"
       d="m 10.796875,72.90625 h 38.71875 v -8.3125 h -29.6875 V 46.734375 q 2.140625,0.734375 4.28125,1.09375 2.15625,0.359375 4.3125,0.359375 Q 40.625,48.1875 47.75,41.5 54.890625,34.8125 54.890625,23.390625 54.890625,11.625 47.5625,5.09375 40.234375,-1.421875 26.90625,-1.421875 q -4.59375,0 -9.359375,0.78125 -4.75,0.78125 -9.828125,2.34375 V 11.625 q 4.390625,-2.390625 9.078125,-3.5625 4.6875,-1.171875 9.90625,-1.171875 8.453125,0 13.375,4.4375 4.9375,4.4375 4.9375,12.0625 0,7.609375 -4.9375,12.046875 -4.921875,4.453125 -13.375,4.453125 -3.953125,0 -7.890625,-0.875 -3.921875,-0.875 -8.015625,-2.734375 z"
       inkscape:connector-curvature="0"
       style="stroke-linecap:butt;stroke-linejoin:round" />
    <clipPath
       id="p00e20b09e3"
       style="stroke-linecap:butt;stroke-linejoin:round">
      <rect
         id="rect780"
         y="41.472"
         x="57.599998"
         width="357.12"
         height="266.112"
         style="stroke-linecap:butt;stroke-linejoin:round" />
    </clipPath>
    <clipPath
       id="p00e20b09e3-3"
       style="stroke-linecap:butt;stroke-linejoin:round">
      <rect
         id="rect780-6"
         y="41.472"
         x="57.599998"
         width="357.12"
         height="266.112"
         style="stroke-linecap:butt;stroke-linejoin:round" />
    </clipPath>
  </defs>
  <sodipodi:namedview
     id="base"
     pagecolor="#ffffff"
     bordercolor="#666666"
     borderopacity="1.0"
     inkscape:pageopacity="0.0"
     inkscape:pageshadow="2"
     inkscape:zoom="0.7518799"
     inkscape:cx="329.18058"
     inkscape:cy="113.38178"
     inkscape:document-units="mm"
     inkscape:current-layer="layer1"
     showgrid="false"
     inkscape:pagecheckerboard="true"
     inkscape:window-width="1853"
     inkscape:window-height="1025"
     inkscape:window-x="1507"
     inkscape:window-y="27"
     inkscape:window-maximized="1" />
  <metadata
     id="metadata5">
    <rdf:RDF>
      <cc:Work
         rdf:about="">
        <dc:format>image/svg+xml</dc:format>
        <dc:type
           rdf:resource="http://purl.org/dc/dcmitype/StillImage" />
        <dc:title></dc:title>
      </cc:Work>
    </rdf:RDF>
  </metadata>
  <g
     inkscape:label="Layer 1"
     inkscape:groupmode="layer"
     id="layer1"
     style="stroke-linecap:butt;stroke-linejoin:round"
     transform="translate(0,-209)">
    <path
       transform="matrix(0.35277777,0,0,0.35277777,-23.48953,191.79535)"
       inkscape:connector-curvature="0"
       clip-path="url(#p00e20b09e3-3)"
       d="m 73.832727,174.528 76.981613,-0.10946 3.08577,-0.0703 2.11131,0.17829 4.70984,0.55524 1.29927,-0.16445 1.29927,-0.39391 4.06021,-1.47547 0.81204,0.0441 0.81204,0.26594 0.81205,0.4977 0.97445,0.86848 3.08576,3.08751 0.64963,0.27003 0.48723,0.022 0.48722,-0.15489 0.48723,-0.34433 0.64963,-0.75966 0.81205,-1.40343 0.97445,-2.20039 2.11131,-4.99582 0.64963,-1.01283 0.48723,-0.43565 0.48722,-0.1003 0.32482,0.13944 0.48722,0.53864 0.48723,0.94398 0.64963,1.87474 0.81205,3.21837 1.29926,6.41541 1.29927,6.23516 0.64963,2.31333 0.48723,1.1451 0.32482,0.42378 0.32481,0.12197 0.32482,-0.19993 0.32482,-0.53602 0.48722,-1.44899 0.48723,-2.21619 0.64963,-4.06816 0.81204,-6.55583 2.76095,-24.08153 0.64963,-3.15718 0.32482,-0.86878 0.32482,-0.33608 0.16241,0.0425 0.32481,0.52189 0.32482,1.11726 0.48722,2.79927 0.64964,5.75325 0.81204,10.01713 1.13686,17.42289 1.46168,22.17207 0.64963,7.40606 0.48723,3.84419 0.32481,1.58961 0.32482,0.7329 0.16241,0.029 0.16241,-0.2024 0.32481,-1.11181 0.32482,-2.06371 0.48723,-4.86096 0.64963,-9.58264 0.81204,-16.15031 1.46168,-35.16286 1.13686,-25.20492 0.64963,-10.57374 0.48723,-5.22827 0.32481,-1.99015 0.32482,-0.6982 0.16241,0.1534 0.32482,1.33334 0.32481,2.71057 0.48723,6.60752 0.64963,13.24703 0.81205,22.47842 1.46167,49.01611 1.13686,35.19412 0.64963,14.90441 0.48723,7.53776 0.32482,3.02304 0.32481,1.3018 0.16241,-0.0162 0.16241,-0.46799 0.32482,-2.29896 0.32482,-4.10529 0.48722,-9.43308 0.64963,-18.15406 0.81205,-29.82447 2.92335,-115.249705 0.64963,-14.01594 0.48723,-5.395169 0.16241,-0.746605 0.16241,-0.206276 0.1624,0.338626 0.32482,2.316287 0.32482,4.480651 0.48722,10.625571 0.64964,20.77317 0.81204,34.34294 2.92335,133.04836 0.64964,16.51178 0.48722,6.69653 0.32482,1.54456 0.16241,-0.12396 0.16241,-0.72334 0.32481,-3.23202 0.48723,-9.18309 0.48722,-14.01979 0.64964,-25.12219 0.97445,-47.22483 1.9489,-96.768562 0.81204,-28.097929 0.48723,-10.850363 0.32481,-4.406335 0.32482,-2.043636 0.16241,-0.123955 0.16241,0.474778 0.32482,2.727778 0.32481,5.038537 0.48723,11.63044 0.64963,22.174719 0.97445,43.566538 2.27372,106.53138 0.64964,20.77317 0.48722,10.62557 0.48723,5.91162 0.32481,1.22394 0.16241,-0.20627 0.16241,-0.74661 0.32482,-3.08221 0.48722,-8.4068 0.64964,-17.48713 0.81204,-29.61853 2.92335,-115.70851 0.64964,-15.052233 0.48722,-6.822296 0.32482,-2.298956 0.16241,-0.467991 0.1624,-0.01617 0.16241,0.430881 0.32482,2.172681 0.32482,3.848714 0.48722,8.65719 0.64964,16.10474 0.97445,30.74692 1.9489,63.18923 0.81204,18.69591 0.48723,7.59573 0.48722,4.57878 0.32482,1.33334 0.16241,0.1534 0.16241,-0.1836 0.32481,-1.35257 0.32482,-2.60791 0.48723,-6.06136 0.64963,-11.46045 0.97445,-22.02939 1.9489,-45.33879 0.81204,-13.48056 0.64964,-6.93742 0.48722,-2.73821 0.32482,-0.63971 0.16241,0.029 0.16241,0.25587 0.32481,1.16848 0.48723,3.27922 0.64963,6.80906 0.81205,11.33941 2.59853,38.55945 0.64964,6.29873 0.48722,3.24326 0.48723,1.90115 0.32481,0.52189 0.16241,0.0425 0.16241,-0.0991 0.32482,-0.6072 0.32482,-1.1197 0.48722,-2.536 0.64963,-4.68006 1.13686,-10.2959 1.46168,-13.2075 0.81204,-5.61916 0.64964,-3.11909 0.48722,-1.44899 0.32482,-0.53602 0.32482,-0.19993 0.32481,0.12197 0.32482,0.42378 0.48722,1.1451 0.64964,2.31333 0.97445,4.57008 1.9489,9.4709 0.81204,2.85062 0.64964,1.52653 0.48722,0.67325 0.48723,0.27436 0.32482,-0.0274 0.48722,-0.32903 0.48723,-0.63139 0.64963,-1.21253 1.13686,-2.7147 1.62408,-3.82995 0.81205,-1.40343 0.64963,-0.75966 0.64963,-0.41655 0.48723,-0.0942 0.64963,0.13703 0.64964,0.38793 0.97445,0.90701 2.76094,2.82753 0.97445,0.56955 0.81205,0.21983 0.81204,0.003 0.97445,-0.22457 1.46168,-0.60339 2.11131,-0.85635 1.29926,-0.28135 1.29927,-0.0535 1.62409,0.16807 4.22262,0.55277 2.27371,-0.002 7.79561,-0.20787 9.74451,0.0438 31.66965,-8.6e-4 28.90871,1e-5 v 0"
       style="fill:none;fill-opacity:1;stroke:#010507;stroke-width:1.5;stroke-linecap:square;stroke-linejoin:round;stroke-opacity:1"
       id="path999-7"
       inkscape:export-xdpi="96"
       inkscape:export-ydpi="96" />
  </g>
</svg>
